<svg width="75" height="75" viewBox="0 0 75 75" fill="none" xmlns="http://www.w3.org/2000/svg">
<path fill-rule="evenodd" clip-rule="evenodd" d="M73.1716 13.1716C74.7336 14.7337 74.7336 17.2663 73.1716 18.8284L54.4706 37.5294L73.2462 56.3051C74.8083 57.8672 74.8083 60.3998 73.2462 61.9619L61.9325 73.2756C60.3704 74.8377 57.8378 74.8377 56.2756 73.2756L37.5 54.5L18.7243 73.2756C17.1622 74.8377 14.6296 74.8377 13.0675 73.2756L1.75377 61.9619C0.191696 60.3998 0.191696 57.8672 1.75377 56.3051L20.5294 37.5294L1.82841 18.8284C0.266342 17.2663 0.266342 14.7337 1.82841 13.1716L13.1421 1.85786C14.7042 0.295753 17.2369 0.295753 18.799 1.85786L37.5 20.5588L56.201 1.85786C57.7631 0.295753 60.2958 0.295753 61.8578 1.85786L73.1716 13.1716Z" fill="black"/>
</svg>
